# MagicaVoxel @ Ephtracy

# group
o 

# material
mtllib Gub.mtl
usemtl palette

# normals
vn -1 0 0
vn 1 0 0
vn 0 0 1
vn 0 0 -1
vn 0 -1 0
vn 0 1 0

# texcoords
vt 0.208984 0.5
vt 0.529297 0.5

# verts
v -3.2 -2.1 -0.6
v -3.2 -2.1 -1
v -3.2 -1.7 -0.6
v -3.2 -1.7 -1
v -2.7 -2.2 -0.5
v -2.7 -2.2 -1.1
v -2.7 -2.1 -0.6
v -2.7 -2.1 -1
v -2.7 -1.7 -0.6
v -2.7 -1.7 -1
v -2.7 -1.6 -0.5
v -2.7 -1.6 -1.1
v -2.4 -2 -1.1
v -2.4 -2 -1.2
v -2.4 -1.7 -1.1
v -2.4 -1.7 -1.2
v -2.3 -2.1 -0.4
v -2.3 -2.1 -0.5
v -2.3 -1.8 -0.4
v -2.3 -1.8 -0.5
v -2.1 -3.2 -0.5
v -2.1 -3.2 -1
v -2.1 -2.2 -0.5
v -2.1 -2.2 -1
v 0.0999999 -2.3 0.2
v 0.0999999 -2.3 -1.8
v 0.0999999 -2.2 -0.5
v 0.0999999 -2.2 -1.1
v 0.0999999 -1.6 -0.5
v 0.0999999 -1.6 -1.1
v 0.0999999 -1.1 0.2
v 0.0999999 -1.1 -1.8
v 1.2 -2.6 -0.7
v 1.2 -2.6 -0.9
v 1.2 -2.2 -0.7
v 1.2 -2.2 -0.9
v -1.5 -3.2 -0.5
v -1.5 -3.2 -1
v -1.5 -2.2 -0.5
v -1.5 -2.2 -1
v -0.1 -2 -1.1
v -0.1 -2 -1.2
v -0.1 -1.7 -1.1
v -0.1 -1.7 -1.2
v -2.38419e-07 -2.1 -0.4
v -2.38419e-07 -2.1 -0.5
v -2.38419e-07 -1.8 -0.4
v -2.38419e-07 -1.8 -0.5
v 0.5 -2.3 0.2
v 0.5 -2.3 -1.8
v 0.5 -2.2 -0.5
v 0.5 -2.2 -1.1
v 0.5 -1.6 -0.5
v 0.5 -1.6 -1.1
v 0.5 -1.1 0.2
v 0.5 -1.1 -1.8
v 2 -2.6 -0.7
v 2 -2.6 -0.9
v 2 -2.2 -0.7
v 2 -2.2 -0.9
v 2.2 -2.2 -0.5
v 2.2 -2.2 -1.1
v 2.2 -1.6 -0.5
v 2.2 -1.6 -1.1
v 0.0999999 -2.3 0.2
v 0.0999999 -1.1 0.2
v 0.5 -2.3 0.2
v 0.5 -1.1 0.2
v -2.3 -2.1 -0.4
v -2.3 -1.8 -0.4
v -2.38419e-07 -2.1 -0.4
v -2.38419e-07 -1.8 -0.4
v -2.7 -2.2 -0.5
v -2.7 -1.6 -0.5
v -2.3 -2.1 -0.5
v -2.3 -1.8 -0.5
v -2.1 -3.2 -0.5
v -2.1 -2.2 -0.5
v -1.5 -3.2 -0.5
v -1.5 -2.2 -0.5
v -2.38419e-07 -2.1 -0.5
v -2.38419e-07 -1.8 -0.5
v 0.0999999 -2.2 -0.5
v 0.0999999 -1.6 -0.5
v 0.5 -2.2 -0.5
v 0.5 -1.6 -0.5
v 2.2 -2.2 -0.5
v 2.2 -1.6 -0.5
v -3.2 -2.1 -0.6
v -3.2 -1.7 -0.6
v -2.7 -2.1 -0.6
v -2.7 -1.7 -0.6
v 1.2 -2.6 -0.7
v 1.2 -2.2 -0.7
v 2 -2.6 -0.7
v 2 -2.2 -0.7
v 1.2 -2.6 -0.9
v 1.2 -2.2 -0.9
v 2 -2.6 -0.9
v 2 -2.2 -0.9
v -3.2 -2.1 -1
v -3.2 -1.7 -1
v -2.7 -2.1 -1
v -2.7 -1.7 -1
v -2.1 -3.2 -1
v -2.1 -2.2 -1
v -1.5 -3.2 -1
v -1.5 -2.2 -1
v -2.7 -2.2 -1.1
v -2.7 -1.6 -1.1
v -2.4 -2 -1.1
v -2.4 -1.7 -1.1
v -0.1 -2 -1.1
v -0.1 -1.7 -1.1
v 0.0999999 -2.2 -1.1
v 0.0999999 -1.6 -1.1
v 0.5 -2.2 -1.1
v 0.5 -1.6 -1.1
v 2.2 -2.2 -1.1
v 2.2 -1.6 -1.1
v -2.4 -2 -1.2
v -2.4 -1.7 -1.2
v -0.1 -2 -1.2
v -0.1 -1.7 -1.2
v 0.0999999 -2.3 -1.8
v 0.0999999 -1.1 -1.8
v 0.5 -2.3 -1.8
v 0.5 -1.1 -1.8
v -2.1 -3.2 -0.5
v -1.5 -3.2 -0.5
v -2.1 -3.2 -1
v -1.5 -3.2 -1
v 1.2 -2.6 -0.7
v 2 -2.6 -0.7
v 1.2 -2.6 -0.9
v 2 -2.6 -0.9
v 0.0999999 -2.3 0.2
v 0.5 -2.3 0.2
v 0.0999999 -2.3 -1.8
v 0.5 -2.3 -1.8
v -2.7 -2.2 -0.5
v -2.1 -2.2 -0.5
v -1.5 -2.2 -0.5
v 0.0999999 -2.2 -0.5
v 0.5 -2.2 -0.5
v 2.2 -2.2 -0.5
v 1.2 -2.2 -0.7
v 2 -2.2 -0.7
v 1.2 -2.2 -0.9
v 2 -2.2 -0.9
v -2.1 -2.2 -1
v -1.5 -2.2 -1
v -2.7 -2.2 -1.1
v 0.0999999 -2.2 -1.1
v 0.5 -2.2 -1.1
v 2.2 -2.2 -1.1
v -2.3 -2.1 -0.4
v -2.38419e-07 -2.1 -0.4
v -2.3 -2.1 -0.5
v -2.38419e-07 -2.1 -0.5
v -3.2 -2.1 -0.6
v -2.7 -2.1 -0.6
v -3.2 -2.1 -1
v -2.7 -2.1 -1
v -2.4 -2 -1.1
v -0.1 -2 -1.1
v -2.4 -2 -1.2
v -0.1 -2 -1.2
v -2.3 -1.8 -0.4
v -2.38419e-07 -1.8 -0.4
v -2.3 -1.8 -0.5
v -2.38419e-07 -1.8 -0.5
v -3.2 -1.7 -0.6
v -2.7 -1.7 -0.6
v -3.2 -1.7 -1
v -2.7 -1.7 -1
v -2.4 -1.7 -1.1
v -0.1 -1.7 -1.1
v -2.4 -1.7 -1.2
v -0.1 -1.7 -1.2
v -2.7 -1.6 -0.5
v 0.0999999 -1.6 -0.5
v 0.5 -1.6 -0.5
v 2.2 -1.6 -0.5
v -2.7 -1.6 -1.1
v 0.0999999 -1.6 -1.1
v 0.5 -1.6 -1.1
v 2.2 -1.6 -1.1
v 0.0999999 -1.1 0.2
v 0.5 -1.1 0.2
v 0.0999999 -1.1 -1.8
v 0.5 -1.1 -1.8

# faces
f 3/2/1 2/2/1 1/2/1
f 4/2/1 2/2/1 3/2/1
f 7/1/1 6/1/1 5/1/1
f 8/1/1 6/1/1 7/1/1
f 9/1/1 7/1/1 5/1/1
f 10/1/1 6/1/1 8/1/1
f 11/1/1 9/1/1 5/1/1
f 11/1/1 10/1/1 9/1/1
f 12/1/1 6/1/1 10/1/1
f 12/1/1 10/1/1 11/1/1
f 15/2/1 14/2/1 13/2/1
f 16/2/1 14/2/1 15/2/1
f 19/2/1 18/2/1 17/2/1
f 20/2/1 18/2/1 19/2/1
f 23/2/1 22/2/1 21/2/1
f 24/2/1 22/2/1 23/2/1
f 27/2/1 26/2/1 25/2/1
f 28/2/1 26/2/1 27/2/1
f 29/2/1 27/2/1 25/2/1
f 30/2/1 26/2/1 28/2/1
f 31/2/1 29/2/1 25/2/1
f 31/2/1 30/2/1 29/2/1
f 32/2/1 26/2/1 30/2/1
f 32/2/1 30/2/1 31/2/1
f 35/2/1 34/2/1 33/2/1
f 36/2/1 34/2/1 35/2/1
f 37/2/2 38/2/2 39/2/2
f 39/2/2 38/2/2 40/2/2
f 41/2/2 42/2/2 43/2/2
f 43/2/2 42/2/2 44/2/2
f 45/2/2 46/2/2 47/2/2
f 47/2/2 46/2/2 48/2/2
f 49/2/2 50/2/2 51/2/2
f 51/2/2 50/2/2 52/2/2
f 49/2/2 51/2/2 53/2/2
f 52/2/2 50/2/2 54/2/2
f 49/2/2 53/2/2 55/2/2
f 53/2/2 54/2/2 55/2/2
f 54/2/2 50/2/2 56/2/2
f 55/2/2 54/2/2 56/2/2
f 57/2/2 58/2/2 59/2/2
f 59/2/2 58/2/2 60/2/2
f 61/1/2 62/1/2 63/1/2
f 63/1/2 62/1/2 64/1/2
f 67/2/3 66/2/3 65/2/3
f 68/2/3 66/2/3 67/2/3
f 71/2/3 70/2/3 69/2/3
f 72/2/3 70/2/3 71/2/3
f 75/1/3 74/1/3 73/1/3
f 76/1/3 74/1/3 75/1/3
f 78/1/3 75/1/3 73/1/3
f 79/2/3 78/2/3 77/2/3
f 80/1/3 75/1/3 78/1/3
f 80/2/3 78/2/3 79/2/3
f 81/1/3 75/1/3 80/1/3
f 82/1/3 74/1/3 76/1/3
f 83/1/3 81/1/3 80/1/3
f 83/1/3 82/1/3 81/1/3
f 84/1/3 74/1/3 82/1/3
f 84/1/3 82/1/3 83/1/3
f 87/1/3 86/1/3 85/1/3
f 88/1/3 86/1/3 87/1/3
f 91/2/3 90/2/3 89/2/3
f 92/2/3 90/2/3 91/2/3
f 95/2/3 94/2/3 93/2/3
f 96/2/3 94/2/3 95/2/3
f 97/2/4 98/2/4 99/2/4
f 99/2/4 98/2/4 100/2/4
f 101/2/4 102/2/4 103/2/4
f 103/2/4 102/2/4 104/2/4
f 105/2/4 106/2/4 107/2/4
f 107/2/4 106/2/4 108/2/4
f 109/1/4 110/1/4 111/1/4
f 111/1/4 110/1/4 112/1/4
f 109/1/4 111/1/4 113/1/4
f 112/1/4 110/1/4 114/1/4
f 109/1/4 113/1/4 115/1/4
f 113/1/4 114/1/4 115/1/4
f 114/1/4 110/1/4 116/1/4
f 115/1/4 114/1/4 116/1/4
f 117/1/4 118/1/4 119/1/4
f 119/1/4 118/1/4 120/1/4
f 121/2/4 122/2/4 123/2/4
f 123/2/4 122/2/4 124/2/4
f 125/2/4 126/2/4 127/2/4
f 127/2/4 126/2/4 128/2/4
f 131/2/5 130/2/5 129/2/5
f 132/2/5 130/2/5 131/2/5
f 135/2/5 134/2/5 133/2/5
f 136/2/5 134/2/5 135/2/5
f 139/2/5 138/2/5 137/2/5
f 140/2/5 138/2/5 139/2/5
f 147/1/5 146/1/5 145/1/5
f 148/1/5 146/1/5 147/1/5
f 149/1/5 147/1/5 145/1/5
f 150/1/5 146/1/5 148/1/5
f 151/1/5 142/1/5 141/1/5
f 152/1/5 144/1/5 143/1/5
f 153/1/5 151/1/5 141/1/5
f 153/1/5 152/1/5 151/1/5
f 154/1/5 144/1/5 152/1/5
f 154/1/5 152/1/5 153/1/5
f 155/1/5 150/1/5 149/1/5
f 155/1/5 149/1/5 145/1/5
f 156/1/5 146/1/5 150/1/5
f 156/1/5 150/1/5 155/1/5
f 159/2/5 158/2/5 157/2/5
f 160/2/5 158/2/5 159/2/5
f 163/2/5 162/2/5 161/2/5
f 164/2/5 162/2/5 163/2/5
f 167/2/5 166/2/5 165/2/5
f 168/2/5 166/2/5 167/2/5
f 169/2/6 170/2/6 171/2/6
f 171/2/6 170/2/6 172/2/6
f 173/2/6 174/2/6 175/2/6
f 175/2/6 174/2/6 176/2/6
f 177/2/6 178/2/6 179/2/6
f 179/2/6 178/2/6 180/2/6
f 181/1/6 182/1/6 185/1/6
f 185/1/6 182/1/6 186/1/6
f 183/1/6 184/1/6 187/1/6
f 187/1/6 184/1/6 188/1/6
f 189/2/6 190/2/6 191/2/6
f 191/2/6 190/2/6 192/2/6
